<svg xmlns="http://www.w3.org/2000/svg" version="1.1" xmlns:xlink="http://www.w3.org/1999/xlink" xmlns:svgjs="http://svgjs.dev/svgjs" width="2000" height="2000" viewBox="0 0 2000 2000"><g transform="matrix(1,0,0,1,0,0)"><svg viewBox="0 0 280 280" data-background-color="#ffffff" preserveAspectRatio="xMidYMid meet" height="2000" width="2000" xmlns="http://www.w3.org/2000/svg" xmlns:xlink="http://www.w3.org/1999/xlink"><g id="tight-bounds" transform="matrix(1,0,0,1,0,0)"><svg viewBox="0 0 280 280" height="280" width="280"><g><svg viewBox="0 0 280 280" height="280" width="280"><g transform="matrix(1,0,0,1,60.80404050710668,69.62803014739589)"><svg viewBox="0 0 158.39191898578665 140.74393970520822" height="140.74393970520822" width="158.39191898578665"><g><svg viewBox="0 0 158.39191898578665 140.74393970520822" height="140.74393970520822" width="158.39191898578665"><g><svg viewBox="0 0 158.39191898578665 140.74393970520822" height="140.74393970520822" width="158.39191898578665"><g transform="matrix(1,0,0,1,0,85.09307542786134)"><svg viewBox="0 0 158.39191898578665 55.6508642773469" height="55.6508642773469" width="158.39191898578665"><g id="textblocktransform"><svg viewBox="0 0 158.39191898578665 55.6508642773469" height="55.6508642773469" width="158.39191898578665" id="textblock"><g><svg viewBox="0 0 158.39191898578665 34.66502734953111" height="34.66502734953111" width="158.39191898578665"><g transform="matrix(1,0,0,1,0,0)"><svg width="158.39191898578665" viewBox="0.35 -34.05 206.28 45.15" height="34.66502734953111" data-palette-color="#ed2647"><path d="M0.35 0L6.85-33.65 12.65-33.3Q13.75-33.45 15.05-33.6 16.35-33.75 17.65-33.75L17.65-33.75Q19.7-33.75 21.5-33.35 23.3-32.95 24.65-32.05 26-31.15 26.78-29.7 27.55-28.25 27.55-26.1L27.55-26.1Q27.55-23.05 25.9-21 24.25-18.95 21.15-17.6L21.15-17.6Q23.75-16.6 24.83-15.05 25.9-13.5 25.9-11.15L25.9-11.15Q25.9-8.45 24.68-6.35 23.45-4.25 21.35-2.83 19.25-1.4 16.48-0.68 13.7 0.05 10.6 0.05L10.6 0.05Q9.3 0.05 8 0.05 6.7 0.05 5.58 0.03 4.45 0 3.68 0 2.9 0 2.65 0L2.65 0 0.35 0ZM13.6-14.45L11.2-14.45 9.5-5.4 11.2-5.4Q12.3-5.4 13.4-5.73 14.5-6.05 15.38-6.73 16.25-7.4 16.78-8.38 17.3-9.35 17.3-10.7L17.3-10.7Q17.3-12.65 16.4-13.55 15.5-14.45 13.6-14.45L13.6-14.45ZM15.55-28.35L15.55-28.35Q14.65-28.35 13.9-28.15L13.9-28.15 12.35-20.1 13.6-20.1Q16.3-20.1 17.68-21.45 19.05-22.8 19.05-24.7L19.05-24.7Q19.05-26.7 18.18-27.53 17.3-28.35 15.55-28.35ZM28.55 0L35.1-33.45 43.2-33.45 37.85-6.05 48.8-6.05 48.8 0 28.55 0ZM67.6-34.05L67.6-34.05Q73.75-34.05 76.5-31.08 79.25-28.1 79.25-22.65L79.25-22.65Q79.25-18.2 78.12-14 77-9.8 74.7-6.53 72.4-3.25 68.9-1.25 65.4 0.75 60.65 0.75L60.65 0.75Q54.5 0.75 51.77-2.3 49.05-5.35 49.05-10.75L49.05-10.75Q49.05-15.2 50.17-19.4 51.3-23.6 53.57-26.85 55.85-30.1 59.35-32.08 62.85-34.05 67.6-34.05ZM66.05-27.85L66.05-27.85Q63.9-27.85 62.32-26.25 60.75-24.65 59.75-22.25 58.75-19.85 58.25-17 57.75-14.15 57.75-11.65L57.75-11.65Q57.75-10.35 57.97-9.22 58.2-8.1 58.72-7.25 59.25-6.4 60.12-5.93 61-5.45 62.3-5.45L62.3-5.45Q64.45-5.45 66.02-7.08 67.6-8.7 68.6-11.15 69.6-13.6 70.1-16.48 70.6-19.35 70.6-21.85L70.6-21.85Q70.6-23.1 70.37-24.2 70.15-25.3 69.62-26.13 69.1-26.95 68.22-27.4 67.35-27.85 66.05-27.85ZM98.39 1.25L99.59-3.85Q98.34-1.75 96.47-0.58 94.59 0.6 92.19 0.6L92.19 0.6Q87.44 0.6 85.12-2.35 82.79-5.3 82.79-10.75L82.79-10.75Q82.79-15.2 83.92-19.4 85.04-23.6 87.37-26.85 89.69-30.1 93.29-32.08 96.89-34.05 101.84-34.05L101.84-34.05Q104.19-34.05 105.77-33.55 107.34-33.05 108.37-32.23 109.39-31.4 109.94-30.25 110.49-29.1 110.79-27.85L110.79-27.85 104.44-24.95Q104.24-25.5 103.97-26.03 103.69-26.55 103.24-26.95 102.79-27.35 102.07-27.6 101.34-27.85 100.24-27.85L100.24-27.85Q97.89-27.85 96.24-26.25 94.59-24.65 93.52-22.23 92.44-19.8 91.94-16.95 91.44-14.1 91.44-11.65L91.44-11.65Q91.44-9.05 92.24-7.33 93.04-5.6 94.89-5.6L94.89-5.6Q95.69-5.6 96.54-6.05 97.39-6.5 98.17-7.3 98.94-8.1 99.54-9.2 100.14-10.3 100.39-11.6L100.39-11.6 101.54-17.5 109.44-17.5 105.89 1Q105.49 3.1 104.42 4.95 103.34 6.8 101.74 8.18 100.14 9.55 98.07 10.33 95.99 11.1 93.54 11.1L93.54 11.1Q92.04 11.1 90.44 10.83 88.84 10.55 87.37 10.1 85.89 9.65 84.57 9.13 83.24 8.6 82.29 8.1L82.29 8.1 85.09 1.95Q88.34 3.4 90.29 3.98 92.24 4.55 93.89 4.55L93.89 4.55Q95.64 4.55 96.84 3.63 98.04 2.7 98.39 1.25L98.39 1.25ZM120.44-0.95L138.69-33.45 145.59-33.45 151.99 0 143.69 0 142.44-8 132.64-8 128.34 0.4 120.44-0.95ZM135.69-14.05L141.49-14.05Q141.09-16.6 140.79-19.03 140.49-21.45 140.24-23.15L140.24-23.15Q139.34-21.4 138.14-19 136.94-16.6 135.69-14.05L135.69-14.05ZM153.99 0L160.49-33.65 166.04-33.3Q167.04-33.5 168.26-33.63 169.49-33.75 170.89-33.75L170.89-33.75Q173.09-33.75 174.96-33.35 176.84-32.95 178.24-32.02 179.64-31.1 180.41-29.55 181.19-28 181.19-25.75L181.19-25.75Q181.19-22.4 179.96-19.9 178.74-17.4 176.76-15.73 174.79-14.05 172.29-13.23 169.79-12.4 167.19-12.4L167.19-12.4Q166.49-12.4 165.84-12.4 165.19-12.4 164.49-12.5L164.49-12.5 162.09 0 153.99 0ZM169.19-28.35L169.19-28.35Q168.74-28.35 168.34-28.35 167.94-28.35 167.54-28.25L167.54-28.25 165.64-18.35 166.59-18.35Q169.34-18.35 171.01-20.1 172.69-21.85 172.69-24.7L172.69-24.7Q172.69-26.7 171.74-27.53 170.79-28.35 169.19-28.35ZM179.43 0L185.93-33.65 191.48-33.3Q192.48-33.5 193.71-33.63 194.93-33.75 196.33-33.75L196.33-33.75Q198.53-33.75 200.41-33.35 202.28-32.95 203.68-32.02 205.08-31.1 205.86-29.55 206.63-28 206.63-25.75L206.63-25.75Q206.63-22.4 205.41-19.9 204.18-17.4 202.21-15.73 200.23-14.05 197.73-13.23 195.23-12.4 192.63-12.4L192.63-12.4Q191.93-12.4 191.28-12.4 190.63-12.4 189.93-12.5L189.93-12.5 187.53 0 179.43 0ZM194.63-28.35L194.63-28.35Q194.18-28.35 193.78-28.35 193.38-28.35 192.98-28.25L192.98-28.25 191.08-18.35 192.03-18.35Q194.78-18.35 196.46-20.1 198.13-21.85 198.13-24.7L198.13-24.7Q198.13-26.7 197.18-27.53 196.23-28.35 194.63-28.35Z" opacity="1" transform="matrix(1,0,0,1,0,0)" fill="#ed2647" class="wordmark-text-0" data-fill-palette-color="primary" id="text-0"></path></svg></g></svg></g><g transform="matrix(1,0,0,1,0,42.84860834609901)"><svg viewBox="0 0 158.39191898578665 12.802255931247881" height="12.802255931247881" width="158.39191898578665"><g transform="matrix(1,0,0,1,0,0)"><svg width="158.39191898578665" viewBox="1.2 -38.85 604.92 48.9" height="12.802255931247881" data-palette-color="#ca3433"><path d="M25.2-34.25L25.2-34.25 23.25-29.8Q21.2-30.55 19.18-31 17.15-31.45 15.3-31.45L15.3-31.45Q12.15-31.45 10.28-30.15 8.4-28.85 8.4-26.85L8.4-26.85Q8.4-25.15 9.75-24.13 11.1-23.1 13.1-22.28 15.1-21.45 17.45-20.63 19.8-19.8 21.8-18.5 23.8-17.2 25.15-15.23 26.5-13.25 26.5-10.15L26.5-10.15Q26.5-7.75 25.63-5.83 24.75-3.9 23.03-2.5 21.3-1.1 18.73-0.35 16.15 0.4 12.7 0.4L12.7 0.4Q10.5 0.4 8.72 0.1 6.95-0.2 5.53-0.68 4.1-1.15 3.03-1.7 1.95-2.25 1.2-2.7L1.2-2.7 3.6-7.45Q5.6-6.3 8.05-5.6 10.5-4.9 12.5-4.9L12.5-4.9Q13.5-4.9 14.98-5.15 16.45-5.4 17.8-6.03 19.15-6.65 20.13-7.7 21.1-8.75 21.1-10.35L21.1-10.35Q21.1-11.8 20.33-12.83 19.55-13.85 18.28-14.63 17-15.4 15.38-16.03 13.75-16.65 12.05-17.32 10.35-18 8.72-18.75 7.1-19.5 5.83-20.58 4.55-21.65 3.78-23.08 3-24.5 3-26.5L3-26.5Q3-28.35 3.75-30.15 4.5-31.95 6-33.35 7.5-34.75 9.73-35.6 11.95-36.45 14.9-36.45L14.9-36.45Q16.7-36.45 18.43-36.15 20.15-35.85 21.55-35.48 22.95-35.1 23.93-34.75 24.9-34.4 25.2-34.25ZM32.2-20.85L32.2-30.1 36.45-30.1 36.45-20.85 42.05-20.85 42.05-17.05 36.45-17.05 36.45 0 32.2 0 32.2-17.05 28.45-17.05 28.45-20.85 32.2-20.85ZM43.69-10.25L43.69-10.25Q43.69-12.55 44.57-14.58 45.44-16.6 46.94-18.13 48.44-19.65 50.42-20.55 52.39-21.45 54.64-21.45L54.64-21.45Q56.14-21.45 57.39-21.08 58.64-20.7 59.55-20.15 60.44-19.6 60.99-19 61.55-18.4 61.74-17.95L61.74-17.95 61.94-20.9 66.05-20.9 66.05 0 61.74 0 61.74-2.65Q61.49-2.25 60.94-1.7 60.39-1.15 59.52-0.68 58.64-0.2 57.44 0.15 56.24 0.5 54.69 0.5L54.69 0.5Q52.29 0.5 50.27-0.38 48.24-1.25 46.79-2.73 45.34-4.2 44.52-6.15 43.69-8.1 43.69-10.25ZM47.99-10.5L47.99-10.5Q47.99-9.05 48.52-7.8 49.04-6.55 49.94-5.65 50.84-4.75 52.09-4.23 53.34-3.7 54.84-3.7L54.84-3.7Q56.34-3.7 57.62-4.23 58.89-4.75 59.82-5.68 60.74-6.6 61.24-7.83 61.74-9.05 61.74-10.5L61.74-10.5Q61.74-11.95 61.24-13.18 60.74-14.4 59.82-15.3 58.89-16.2 57.62-16.73 56.34-17.25 54.84-17.25L54.84-17.25Q53.34-17.25 52.09-16.73 50.84-16.2 49.94-15.3 49.04-14.4 48.52-13.18 47.99-11.95 47.99-10.5ZM84.49-21.45L83.54-15.95Q82.14-15.95 80.84-15.58 79.54-15.2 78.52-14.45 77.49-13.7 76.89-12.58 76.29-11.45 76.29-10L76.29-10 76.29 0 72.04 0 72.04-20.9 75.79-20.9Q75.89-19.35 75.97-18.07 76.04-16.8 76.14-15.55L76.14-15.55Q76.79-16.9 77.84-18 78.89-19.1 80.09-19.85 81.29-20.6 82.44-21.03 83.59-21.45 84.49-21.45L84.49-21.45ZM89.39-20.85L89.39-30.1 93.64-30.1 93.64-20.85 99.24-20.85 99.24-17.05 93.64-17.05 93.64 0 89.39 0 89.39-17.05 85.64-17.05 85.64-20.85 89.39-20.85ZM118.69-17.55L118.69-17.55 117.14-20.9 120.84-20.9Q122.29-17.75 123.29-15.48 124.29-13.2 124.99-11.53 125.69-9.85 126.14-8.7 126.59-7.55 126.89-6.75L126.89-6.75Q127.19-8.25 127.61-9.47 128.04-10.7 128.69-12.23 129.34-13.75 130.26-15.78 131.19-17.8 132.49-20.9L132.49-20.9 136.79-20.9 126.89 1.25Q125.99-0.6 125.21-2.43 124.44-4.25 123.71-6.05 122.99-7.85 122.21-9.65 121.44-11.45 120.54-13.35L120.54-13.35 114.19 1.25 104.74-20.9 109.04-20.9Q110.34-17.8 111.19-15.75 112.04-13.7 112.61-12.2 113.19-10.7 113.54-9.47 113.89-8.25 114.19-6.75L114.19-6.75Q114.39-7.35 114.66-8.1 114.94-8.85 115.41-10.03 115.89-11.2 116.69-13 117.49-14.8 118.69-17.55ZM152.43-21.45L151.48-15.95Q150.08-15.95 148.78-15.58 147.48-15.2 146.46-14.45 145.43-13.7 144.83-12.58 144.23-11.45 144.23-10L144.23-10 144.23 0 139.98 0 139.98-20.9 143.73-20.9Q143.83-19.35 143.91-18.07 143.98-16.8 144.08-15.55L144.08-15.55Q144.73-16.9 145.78-18 146.83-19.1 148.03-19.85 149.23-20.6 150.38-21.03 151.53-21.45 152.43-21.45L152.43-21.45ZM154.98-28.9L154.98-28.9Q154.98-30.1 155.86-30.9 156.73-31.7 157.73-31.7L157.73-31.7Q158.73-31.7 159.58-30.9 160.43-30.1 160.43-28.9L160.43-28.9Q160.43-27.7 159.58-26.93 158.73-26.15 157.73-26.15L157.73-26.15Q156.73-26.15 155.86-26.93 154.98-27.7 154.98-28.9ZM159.78-20.9L159.78 0 155.53 0 155.53-20.9 159.78-20.9ZM167.58-20.85L167.58-30.1 171.83-30.1 171.83-20.85 177.43-20.85 177.43-17.05 171.83-17.05 171.83 0 167.58 0 167.58-17.05 163.83-17.05 163.83-20.85 167.58-20.85ZM180.43-28.9L180.43-28.9Q180.43-30.1 181.3-30.9 182.18-31.7 183.18-31.7L183.18-31.7Q184.18-31.7 185.03-30.9 185.88-30.1 185.88-28.9L185.88-28.9Q185.88-27.7 185.03-26.93 184.18-26.15 183.18-26.15L183.18-26.15Q182.18-26.15 181.3-26.93 180.43-27.7 180.43-28.9ZM185.23-20.9L185.23 0 180.98 0 180.98-20.9 185.23-20.9ZM191.22 0L191.22-20.9 194.97-20.9Q195.07-19.35 195.15-18.07 195.22-16.8 195.32-15.55L195.32-15.55Q196.47-18.25 198.6-19.85 200.72-21.45 203.82-21.45L203.82-21.45Q206.97-21.45 208.87-19.7 210.77-17.95 210.87-15.2L210.87-15.2 210.87 0 206.57 0 206.57-13.25Q206.47-14.85 205.47-15.98 204.47-17.1 202.32-17.2L202.32-17.2Q200.82-17.2 199.57-16.68 198.32-16.15 197.42-15.25 196.52-14.35 196-13.1 195.47-11.85 195.47-10.35L195.47-10.35 195.47 0 191.22 0ZM215.27-10.4L215.27-10.4Q215.27-12.75 216.12-14.78 216.97-16.8 218.42-18.28 219.87-19.75 221.82-20.6 223.77-21.45 225.97-21.45L225.97-21.45Q227.67-21.45 229-21 230.32-20.55 231.22-19.95 232.12-19.35 232.65-18.78 233.17-18.2 233.32-17.95L233.32-17.95Q233.32-18.65 233.42-19.43 233.52-20.2 233.52-20.9L233.52-20.9 237.62-20.9 237.62-0.95Q237.62 4.25 234.57 7.15 231.52 10.05 226.32 10.05L226.32 10.05Q224.52 10.05 223.1 9.68 221.67 9.3 220.5 8.7 219.32 8.1 218.35 7.3 217.37 6.5 216.42 5.65L216.42 5.65 219.17 2.75Q220.72 4.2 222.35 5.05 223.97 5.9 226.22 5.9L226.22 5.9Q229.57 5.9 231.42 4.3 233.27 2.7 233.32-0.15L233.32-0.15 233.32-1.6Q233.32-2 233.42-2.48 233.52-2.95 233.52-3.2L233.52-3.2Q233.07-2.6 232.4-1.93 231.72-1.25 230.82-0.73 229.92-0.2 228.72 0.15 227.52 0.5 226.02 0.5L226.02 0.5Q223.67 0.5 221.72-0.35 219.77-1.2 218.32-2.68 216.87-4.15 216.07-6.13 215.27-8.1 215.27-10.4ZM219.57-10.5L219.57-10.5Q219.57-9.05 220.1-7.8 220.62-6.55 221.52-5.65 222.42-4.75 223.67-4.23 224.92-3.7 226.42-3.7L226.42-3.7Q227.92-3.7 229.2-4.23 230.47-4.75 231.4-5.68 232.32-6.6 232.82-7.83 233.32-9.05 233.32-10.5L233.32-10.5Q233.32-11.95 232.82-13.18 232.32-14.4 231.4-15.3 230.47-16.2 229.2-16.73 227.92-17.25 226.42-17.25L226.42-17.25Q224.92-17.25 223.67-16.73 222.42-16.2 221.52-15.3 220.62-14.4 220.1-13.18 219.57-11.95 219.57-10.5ZM269.62-20.9L254.72 10.05 250.41 10.05Q251.12 8.6 251.74 7.28 252.37 5.95 252.99 4.58 253.62 3.2 254.27 1.73 254.91 0.25 255.72-1.45L255.72-1.45Q254.56-3.7 253.37-6.18 252.16-8.65 250.97-11.15 249.77-13.65 248.59-16.15 247.41-18.65 246.27-20.9L246.27-20.9 250.91-20.9Q252.72-17.35 253.89-14.9 255.06-12.45 255.84-10.68 256.62-8.9 257.09-7.65 257.56-6.4 257.92-5.35L257.92-5.35Q258.31-6.4 258.79-7.65 259.26-8.9 260.04-10.68 260.81-12.45 261.99-14.9 263.17-17.35 264.97-20.9L264.97-20.9 269.62-20.9ZM270.71-10.5L270.71-10.5Q270.71-12.75 271.59-14.75 272.46-16.75 273.96-18.23 275.46-19.7 277.49-20.58 279.51-21.45 281.86-21.45L281.86-21.45Q284.21-21.45 286.24-20.58 288.26-19.7 289.74-18.23 291.21-16.75 292.04-14.75 292.86-12.75 292.86-10.5L292.86-10.5Q292.86-8.25 292.04-6.25 291.21-4.25 289.74-2.75 288.26-1.25 286.24-0.38 284.21 0.5 281.81 0.5L281.81 0.5Q279.51 0.5 277.49-0.3 275.46-1.1 273.96-2.55 272.46-4 271.59-6.03 270.71-8.05 270.71-10.5ZM274.96-10.45L274.96-10.45Q274.96-9.05 275.49-7.83 276.01-6.6 276.94-5.68 277.86-4.75 279.09-4.23 280.31-3.7 281.71-3.7L281.71-3.7Q283.11-3.7 284.36-4.23 285.61-4.75 286.54-5.68 287.46-6.6 288.01-7.83 288.56-9.05 288.56-10.45L288.56-10.45Q288.56-11.85 288.01-13.1 287.46-14.35 286.54-15.28 285.61-16.2 284.36-16.73 283.11-17.25 281.71-17.25L281.71-17.25Q280.31-17.25 279.09-16.73 277.86-16.2 276.94-15.28 276.01-14.35 275.49-13.1 274.96-11.85 274.96-10.45ZM316.86-20.9L316.86 0.45 313.26 0.45 312.76-5.35Q311.61-2.8 309.54-1.15 307.46 0.5 304.26 0.5L304.26 0.5Q301.06 0.5 299.19-1.23 297.31-2.95 297.21-5.75L297.21-5.75 297.21-20.9 301.46-20.9 301.46-7.65Q301.56-6.1 302.59-5 303.61-3.9 305.76-3.75L305.76-3.75Q307.26-3.75 308.51-4.28 309.76-4.8 310.66-5.7 311.56-6.6 312.06-7.85 312.56-9.1 312.56-10.6L312.56-10.6 312.56-20.9 316.86-20.9ZM335.31-21.45L334.36-15.95Q332.96-15.95 331.66-15.58 330.36-15.2 329.33-14.45 328.31-13.7 327.71-12.58 327.11-11.45 327.11-10L327.11-10 327.11 0 322.86 0 322.86-20.9 326.61-20.9Q326.71-19.35 326.78-18.07 326.86-16.8 326.96-15.55L326.96-15.55Q327.61-16.9 328.66-18 329.71-19.1 330.91-19.85 332.11-20.6 333.26-21.03 334.41-21.45 335.31-21.45L335.31-21.45ZM357.85-5.15L357.85-5.15Q358.55-4.3 359.18-3.53 359.8-2.75 360.45-1.9L360.45-1.9Q359.05-0.8 357.3-0.15 355.55 0.5 353.5 0.5L353.5 0.5Q351.2 0.5 349.18-0.38 347.15-1.25 345.65-2.75 344.15-4.25 343.28-6.25 342.4-8.25 342.4-10.5L342.4-10.5Q342.4-12.75 343.28-14.75 344.15-16.75 345.65-18.23 347.15-19.7 349.18-20.58 351.2-21.45 353.5-21.45L353.5-21.45Q355.6-21.45 357.38-20.8 359.15-20.15 360.6-19.05L360.6-19.05 357.85-15.8Q357-16.5 355.9-16.88 354.8-17.25 353.5-17.25L353.5-17.25Q352-17.25 350.75-16.73 349.5-16.2 348.58-15.3 347.65-14.4 347.15-13.18 346.65-11.95 346.65-10.5L346.65-10.5Q346.65-9.05 347.15-7.83 347.65-6.6 348.58-5.68 349.5-4.75 350.75-4.23 352-3.7 353.5-3.7L353.5-3.7Q354.8-3.7 355.9-4.08 357-4.45 357.85-5.15ZM377.1-21.45L376.15-15.95Q374.75-15.95 373.45-15.58 372.15-15.2 371.13-14.45 370.1-13.7 369.5-12.58 368.9-11.45 368.9-10L368.9-10 368.9 0 364.65 0 364.65-20.9 368.4-20.9Q368.5-19.35 368.58-18.07 368.65-16.8 368.75-15.55L368.75-15.55Q369.4-16.9 370.45-18 371.5-19.1 372.7-19.85 373.9-20.6 375.05-21.03 376.2-21.45 377.1-21.45L377.1-21.45ZM394.3-5.55L397.5-2.45Q396-1.1 393.85-0.3 391.7 0.5 389.45 0.5L389.45 0.5Q387.15 0.5 385.12-0.38 383.1-1.25 381.6-2.73 380.1-4.2 379.22-6.2 378.35-8.2 378.35-10.45L378.35-10.45Q378.35-12.7 379.22-14.7 380.1-16.7 381.6-18.2 383.1-19.7 385.07-20.58 387.05-21.45 389.3-21.45L389.3-21.45Q392.85-21.45 395.47-19.33 398.1-17.2 399.25-13.75L399.25-13.75Q397.7-13.2 395.7-12.4 393.7-11.6 391.55-10.73 389.4-9.85 387.25-9 385.1-8.15 383.25-7.45L383.25-7.45Q384.1-5.75 385.72-4.73 387.35-3.7 389.35-3.7L389.35-3.7Q390.7-3.7 392.07-4.2 393.45-4.7 394.3-5.55L394.3-5.55ZM393.9-14.75L393.9-14.75Q393.3-16 392-16.63 390.7-17.25 389.35-17.25L389.35-17.25Q387.9-17.25 386.67-16.7 385.45-16.15 384.55-15.23 383.65-14.3 383.12-13.1 382.6-11.9 382.6-10.65L382.6-10.65Q382.6-10.4 382.62-10.3 382.65-10.2 382.65-10.15L382.65-10.15Q383.95-10.65 385.47-11.28 387-11.9 388.5-12.53 390-13.15 391.4-13.73 392.8-14.3 393.9-14.75ZM401.5-10.25L401.5-10.25Q401.5-12.55 402.37-14.58 403.25-16.6 404.75-18.13 406.25-19.65 408.22-20.55 410.2-21.45 412.45-21.45L412.45-21.45Q413.95-21.45 415.2-21.08 416.45-20.7 417.35-20.15 418.25-19.6 418.8-19 419.35-18.4 419.55-17.95L419.55-17.95 419.75-20.9 423.85-20.9 423.85 0 419.55 0 419.55-2.65Q419.3-2.25 418.75-1.7 418.2-1.15 417.32-0.68 416.45-0.2 415.25 0.15 414.05 0.5 412.5 0.5L412.5 0.5Q410.1 0.5 408.07-0.38 406.05-1.25 404.6-2.73 403.15-4.2 402.32-6.15 401.5-8.1 401.5-10.25ZM405.8-10.5L405.8-10.5Q405.8-9.05 406.32-7.8 406.85-6.55 407.75-5.65 408.65-4.75 409.9-4.23 411.15-3.7 412.65-3.7L412.65-3.7Q414.15-3.7 415.42-4.23 416.7-4.75 417.62-5.68 418.55-6.6 419.05-7.83 419.55-9.05 419.55-10.5L419.55-10.5Q419.55-11.95 419.05-13.18 418.55-14.4 417.62-15.3 416.7-16.2 415.42-16.73 414.15-17.25 412.65-17.25L412.65-17.25Q411.15-17.25 409.9-16.73 408.65-16.2 407.75-15.3 406.85-14.4 406.32-13.18 405.8-11.95 405.8-10.5ZM431.64-20.85L431.64-30.1 435.89-30.1 435.89-20.85 441.49-20.85 441.49-17.05 435.89-17.05 435.89 0 431.64 0 431.64-17.05 427.89-17.05 427.89-20.85 431.64-20.85ZM444.49-28.9L444.49-28.9Q444.49-30.1 445.37-30.9 446.24-31.7 447.24-31.7L447.24-31.7Q448.24-31.7 449.09-30.9 449.94-30.1 449.94-28.9L449.94-28.9Q449.94-27.7 449.09-26.93 448.24-26.15 447.24-26.15L447.24-26.15Q446.24-26.15 445.37-26.93 444.49-27.7 444.49-28.9ZM449.29-20.9L449.29 0 445.04 0 445.04-20.9 449.29-20.9ZM463.44 1.25L463.44 1.25Q460.49-4.35 457.91-9.83 455.34-15.3 452.49-20.9L452.49-20.9 457.14-20.9Q458.94-17.35 460.01-15.1 461.09-12.85 461.74-11.35 462.39-9.85 462.74-8.83 463.09-7.8 463.44-6.75L463.44-6.75Q463.84-7.8 464.21-8.83 464.59-9.85 465.21-11.35 465.84-12.85 466.91-15.1 467.99-17.35 469.79-20.9L469.79-20.9 474.44-20.9Q471.59-15.3 468.94-9.83 466.29-4.35 463.44 1.25ZM491.29-5.55L494.49-2.45Q492.99-1.1 490.84-0.3 488.69 0.5 486.44 0.5L486.44 0.5Q484.14 0.5 482.11-0.38 480.09-1.25 478.59-2.73 477.09-4.2 476.21-6.2 475.34-8.2 475.34-10.45L475.34-10.45Q475.34-12.7 476.21-14.7 477.09-16.7 478.59-18.2 480.09-19.7 482.06-20.58 484.04-21.45 486.29-21.45L486.29-21.45Q489.84-21.45 492.46-19.33 495.09-17.2 496.24-13.75L496.24-13.75Q494.69-13.2 492.69-12.4 490.69-11.6 488.54-10.73 486.39-9.85 484.24-9 482.09-8.15 480.24-7.45L480.24-7.45Q481.09-5.75 482.71-4.73 484.34-3.7 486.34-3.7L486.34-3.7Q487.69-3.7 489.06-4.2 490.44-4.7 491.29-5.55L491.29-5.55ZM490.89-14.75L490.89-14.75Q490.29-16 488.99-16.63 487.69-17.25 486.34-17.25L486.34-17.25Q484.89-17.25 483.66-16.7 482.44-16.15 481.54-15.23 480.64-14.3 480.11-13.1 479.59-11.9 479.59-10.65L479.59-10.65Q479.59-10.4 479.61-10.3 479.64-10.2 479.64-10.15L479.64-10.15Q480.94-10.65 482.46-11.28 483.99-11.9 485.49-12.53 486.99-13.15 488.39-13.73 489.79-14.3 490.89-14.75ZM505.88-28.9L505.88-28.9Q505.88-30.1 506.75-30.9 507.63-31.7 508.63-31.7L508.63-31.7Q509.63-31.7 510.48-30.9 511.33-30.1 511.33-28.9L511.33-28.9Q511.33-27.7 510.48-26.93 509.63-26.15 508.63-26.15L508.63-26.15Q507.63-26.15 506.75-26.93 505.88-27.7 505.88-28.9ZM510.68-20.9L510.68 0 506.43 0 506.43-20.9 510.68-20.9ZM515.28-10.45L515.28-10.45Q515.28-12.9 516.1-14.93 516.93-16.95 518.38-18.4 519.83-19.85 521.8-20.65 523.78-21.45 526.08-21.45L526.08-21.45Q527.63-21.45 528.85-21.08 530.08-20.7 530.95-20.18 531.83-19.65 532.43-19 533.03-18.35 533.33-17.85L533.33-17.85 533.33-38.85 537.63-38.85 537.63 0 533.33 0 533.33-1.55Q533.33-1.85 533.38-2.23 533.43-2.6 533.43-2.85L533.43-2.85Q532.93-2.25 532.25-1.68 531.58-1.1 530.68-0.6 529.78-0.1 528.6 0.2 527.43 0.5 525.93 0.5L525.93 0.5Q523.43 0.5 521.45-0.38 519.48-1.25 518.1-2.73 516.73-4.2 516-6.2 515.28-8.2 515.28-10.45ZM519.58-10.5L519.58-10.5Q519.58-9.05 520.1-7.8 520.63-6.55 521.53-5.65 522.43-4.75 523.68-4.23 524.93-3.7 526.43-3.7L526.43-3.7Q527.93-3.7 529.2-4.23 530.48-4.75 531.4-5.68 532.33-6.6 532.83-7.83 533.33-9.05 533.33-10.5L533.33-10.5Q533.33-11.95 532.83-13.18 532.33-14.4 531.4-15.3 530.48-16.2 529.2-16.73 527.93-17.25 526.43-17.25L526.43-17.25Q524.93-17.25 523.68-16.73 522.43-16.2 521.53-15.3 520.63-14.4 520.1-13.18 519.58-11.95 519.58-10.5ZM558.13-5.55L561.33-2.45Q559.83-1.1 557.67-0.3 555.52 0.5 553.27 0.5L553.27 0.5Q550.98 0.5 548.95-0.38 546.92-1.25 545.42-2.73 543.92-4.2 543.05-6.2 542.17-8.2 542.17-10.45L542.17-10.45Q542.17-12.7 543.05-14.7 543.92-16.7 545.42-18.2 546.92-19.7 548.9-20.58 550.88-21.45 553.13-21.45L553.13-21.45Q556.67-21.45 559.3-19.33 561.92-17.2 563.08-13.75L563.08-13.75Q561.52-13.2 559.52-12.4 557.52-11.6 555.38-10.73 553.23-9.85 551.08-9 548.92-8.15 547.08-7.45L547.08-7.45Q547.92-5.75 549.55-4.73 551.17-3.7 553.17-3.7L553.17-3.7Q554.52-3.7 555.9-4.2 557.27-4.7 558.13-5.55L558.13-5.55ZM557.73-14.75L557.73-14.75Q557.13-16 555.83-16.63 554.52-17.25 553.17-17.25L553.17-17.25Q551.73-17.25 550.5-16.7 549.27-16.15 548.38-15.23 547.48-14.3 546.95-13.1 546.42-11.9 546.42-10.65L546.42-10.65Q546.42-10.4 546.45-10.3 546.48-10.2 546.48-10.15L546.48-10.15Q547.77-10.65 549.3-11.28 550.83-11.9 552.33-12.53 553.83-13.15 555.23-13.73 556.63-14.3 557.73-14.75ZM565.32-10.25L565.32-10.25Q565.32-12.55 566.2-14.58 567.07-16.6 568.57-18.13 570.07-19.65 572.05-20.55 574.02-21.45 576.27-21.45L576.27-21.45Q577.77-21.45 579.02-21.08 580.27-20.7 581.17-20.15 582.07-19.6 582.62-19 583.17-18.4 583.37-17.95L583.37-17.95 583.57-20.9 587.67-20.9 587.67 0 583.37 0 583.37-2.65Q583.12-2.25 582.57-1.7 582.02-1.15 581.15-0.68 580.27-0.2 579.07 0.15 577.87 0.5 576.32 0.5L576.32 0.5Q573.92 0.5 571.9-0.38 569.87-1.25 568.42-2.73 566.97-4.2 566.15-6.15 565.32-8.1 565.32-10.25ZM569.62-10.5L569.62-10.5Q569.62-9.05 570.15-7.8 570.67-6.55 571.57-5.65 572.47-4.75 573.72-4.23 574.97-3.7 576.47-3.7L576.47-3.7Q577.97-3.7 579.25-4.23 580.52-4.75 581.45-5.68 582.37-6.6 582.87-7.83 583.37-9.05 583.37-10.5L583.37-10.5Q583.37-11.95 582.87-13.18 582.37-14.4 581.45-15.3 580.52-16.2 579.25-16.73 577.97-17.25 576.47-17.25L576.47-17.25Q574.97-17.25 573.72-16.73 572.47-16.2 571.57-15.3 570.67-14.4 570.15-13.18 569.62-11.95 569.62-10.5ZM605.32-19.05L605.32-19.05 603.07-16.05Q603.02-16.1 602.72-16.3 602.42-16.5 601.94-16.7 601.47-16.9 600.84-17.07 600.22-17.25 599.57-17.25L599.57-17.25Q598.72-17.25 597.89-16.85 597.07-16.45 597.07-15.35L597.07-15.35Q597.07-14.4 597.74-13.8 598.42-13.2 599.42-12.73 600.42-12.25 601.59-11.75 602.77-11.25 603.77-10.53 604.77-9.8 605.44-8.72 606.12-7.65 606.12-6L606.12-6Q606.12-3.2 604.19-1.38 602.27 0.45 598.92 0.45L598.92 0.45Q596.97 0.45 595.09-0.23 593.22-0.9 592.07-2.2L592.07-2.2Q592.42-2.55 592.84-3.1 593.27-3.65 593.69-4.15 594.12-4.65 594.39-4.98 594.67-5.3 594.72-5.3L594.72-5.3Q594.72-5.25 595.09-5 595.47-4.75 596.07-4.48 596.67-4.2 597.42-3.98 598.17-3.75 598.92-3.75L598.92-3.75Q600.12-3.75 600.97-4.35 601.82-4.95 601.82-5.95L601.82-5.95Q601.82-6.85 601.14-7.38 600.47-7.9 599.47-8.35 598.47-8.8 597.27-9.28 596.07-9.75 595.07-10.5 594.07-11.25 593.39-12.38 592.72-13.5 592.72-15.3L592.72-15.3Q592.72-17 593.34-18.15 593.97-19.3 594.94-20.03 595.92-20.75 597.12-21.08 598.32-21.4 599.42-21.4L599.42-21.4Q600.87-21.4 602.52-20.8 604.17-20.2 605.32-19.05Z" opacity="1" transform="matrix(1,0,0,1,0,0)" fill="#ca3433" class="slogan-text-1" data-fill-palette-color="secondary" id="text-1"></path></svg></g></svg></g></svg></g></svg></g><g transform="matrix(1,0,0,1,63.71639881427491,0)"><svg viewBox="0 0 30.959121357236818 76.90949443129342" height="76.90949443129342" width="30.959121357236818"><g><svg xmlns="http://www.w3.org/2000/svg" xmlns:xlink="http://www.w3.org/1999/xlink" version="1.1" x="0" y="0" viewBox="35.18923748546062 5.23101970701272 36.22181827363106 89.98322977780369" enable-background="new 0 0 100 100" xml:space="preserve" height="76.90949443129342" width="30.959121357236818" class="icon-icon-0" data-fill-palette-color="accent" id="icon-0"><path fill-rule="evenodd" clip-rule="evenodd" d="M71.16 61.465c-0.135-0.166-0.316-0.324-0.502-0.408-0.581-0.266-1.197-0.475-1.816-0.609-0.574-0.123-0.982-0.428-1.318-0.865-0.211-0.275-0.402-0.574-0.564-0.883-1.075-2.039-2.152-4.08-3.205-6.131-0.892-1.736-1.715-3.507-2.64-5.226-0.599-1.113-1.319-2.163-1.994-3.236-0.941-1.502-2.064-2.82-3.685-3.639-0.265-0.134-0.512-0.301-0.84-0.493 1.026-0.251 1.783-0.799 2.463-1.478 0.092-0.09 0.266-0.115 0.405-0.131 0.597-0.067 1.099-0.291 1.546-0.715 0.764-0.724 0.884-1.506 0.232-2.307-0.164-0.202-0.162-0.355-0.134-0.582 0.133-1.01 0.276-2.02 0.347-3.035 0.053-0.791-0.313-1.417-1.016-1.808-0.405-0.226-0.838-0.405-1.25-0.62-0.133-0.069-0.285-0.163-0.353-0.286-0.533-0.987-1.411-1.514-2.45-1.744-1.51-0.333-2.964-0.037-4.322 0.659-0.786 0.403-1.527 0.895-2.365 1.393-0.206-0.725-0.471-1.382-0.571-2.062-0.271-1.844-0.466-3.7-0.707-5.549-0.056-0.442 0.08-0.805 0.34-1.138 0.467-0.598 0.557-1.297 0.696-2.021 0.092-0.482 0.62-0.88 0.964-1.307 0.016-0.019 0.13 0.038 0.197 0.062 0.904 0.327 1.726 0.778 2.367 1.519 0.504 0.583 1.098 1.07 1.838 1.297 0.682 0.208 1.383 0.372 2.087 0.477 0.935 0.139 1.716 0.528 2.374 1.197 0.665 0.676 1.465 1.071 2.42 1.178 0.933 0.106 1.838 0.328 2.672 0.786 0.539 0.294 0.674 0.247 0.926-0.314 0.048-0.106 0.074-0.221 0.119-0.328 0.518-1.284 1.159-2.469 2.281-3.359 0.769-0.608 1.32-1.408 1.471-2.412 0.173-1.17 0.753-2.076 1.627-2.86 0.492-0.441 0.863-1.02 1.291-1.534 0.203-0.246 0.146-0.466-0.015-0.714-0.489-0.757-1.206-1.227-2.003-1.568-1.482-0.634-3.026-1.063-4.625-1.294-1.238-0.179-2.348-0.601-3.285-1.495-1.217-1.163-2.695-1.923-4.273-2.492-0.793-0.286-1.055-0.215-1.578 0.451-0.414 0.526-0.836 1.049-1.235 1.587-1.062 1.425-2.071 2.892-3.182 4.28-1.509 1.891-3.087 3.726-4.647 5.575-0.083 0.099-0.297 0.159-0.425 0.13-0.312-0.068-0.625-0.087-0.79 0.199-0.284 0.493-0.759 0.705-1.208 0.973-0.839 0.499-1.211 1.53-0.924 2.464 0.044 0.143 0.029 0.346-0.042 0.477-1.118 2.07-2.48 3.977-3.946 5.814-0.567 0.712-0.566 0.936 0.005 1.59 0.357 0.409 0.666 0.404 1-0.03 0.749-0.971 1.488-1.947 2.236-2.919 0.227-0.295 0.461-0.583 0.757-0.954 0 0.22 0.007 0.329-0.002 0.438-0.136 1.596-0.333 3.191-0.399 4.791-0.072 1.733-0.062 3.473-0.011 5.207 0.045 1.501 0.201 3 0.295 4.5 0.008 0.133-0.036 0.283-0.097 0.403-0.239 0.464-0.529 0.903-0.734 1.382-0.221 0.52-0.618 0.855-1.012 1.229-0.952 0.9-1.94 1.782-2.765 2.793-1.4 1.717-2.06 3.742-1.992 5.966 0.039 1.266 0.098 2.535 0.255 3.791 0.292 2.33 0.621 4.656 1.01 6.971 0.462 2.744 1.031 5.471 1.5 8.213 0.355 2.08 0.627 4.174 0.931 6.262 0.071 0.49 0.129 0.98 0.185 1.473 0.123 1.066 0.234 2.135 0.362 3.201 0.089 0.738 0.196 1.473 0.298 2.207 0.171 1.223 0.338 2.445 0.526 3.664 0.04 0.254 0.112 0.494 0.239 0.719 0.072 0.127 0.277 0.275 0.416 0.287 0.409 0.035 0.821 0.014 1.276 0.014-0.099 1.051-0.236 2.084-0.688 3.248-0.098 0.242-0.157 0.496-0.245 0.744-0.048 0.238-0.17 0.512 0.062 0.697 0.208 0.074 0.474-0.178 0.592-0.348 0.515-0.705 0.742-1.148 1.07-1.746 0.265-0.482 0.47-0.996 0.705-1.502 0.655 0.465 0.849 0.375 0.914-0.42 0.03-0.361 0.006-0.725 0.006-1.115 0.163-0.076 0.364-0.148 0.547-0.271 0.198-0.15 0.346-0.426 0.333-0.635-0.08-1.318-0.217-2.635-0.321-3.951-0.044-0.562-0.049-1.127-0.083-1.689-0.048-0.77-0.119-1.535-0.16-2.305-0.048-0.902-0.079-1.803-0.111-2.703-0.049-1.35-0.093-2.701-0.142-4.049-0.024-0.668-0.063-1.332-0.083-1.998-0.013-0.482-0.002-0.965-0.002-1.447 0.17 0.143 0.241 0.381 0.29 0.586 0.442 1.871 0.837 3.756 1.33 5.613 0.794 2.998 1.398 6.049 2.563 8.947 0.694 1.729 1.266 3.506 1.89 5.262 0.266 0.746 0.263 0.746 1.073 0.57 0.053-0.012 0.146-0.027 0.252-0.041 0 0.225-0.01 0.467-0.04 0.66-0.194 1.238-0.329 2.488-0.601 3.711-0.09 0.406-0.196 0.695 0.156 0.848 0.363 0.076 0.525-0.287 0.675-0.549 0.692-1.4 0.942-2.379 1.251-3.627 0.037-0.146 0.094-0.287 0.15-0.461 0.101 0.059 0.151 0.084 0.195 0.119 0.42 0.322 0.729 0.225 0.846-0.297 0.067-0.311 0.101-0.635 0.105-0.953 0.002-0.275 0.084-0.404 0.365-0.49 0.729-0.223 1.027-0.686 0.918-1.371-0.174-1.062-0.369-2.125-0.552-3.188-0.247-1.451-0.513-2.898-0.728-4.354-0.157-1.064-0.26-2.137-0.363-3.207-0.091-0.939-0.207-1.883-0.209-2.824 0-1.703 0.062-3.406 0.127-5.109 0.043-1.146 0.105-2.291 0.207-3.434 0.143-1.627 0.336-3.246 0.496-4.871 0.092-0.926 0.149-1.855 0.25-2.779 0.148-1.361 0.323-2.721 0.483-4.08 0.079-0.672 0.153-1.346 0.237-2.084 0.09 0.098 0.132 0.135 0.164 0.178 0.771 1.061 1.532 2.127 2.314 3.178 0.435 0.584 0.9 1.146 1.361 1.711 0.665 0.809 1.344 1.611 2.01 2.422 0.757 0.924 1.647 1.637 2.339 2.607 0.738 1.039 1.396 2.232 2.63 2.691 0.486 0.188 0.887 0.238 1.445 0.16 0.555-0.076 0.799-0.695 0.477-1.164-0.177-0.27-0.536-0.463-0.236-0.521 0.18 0 0.361-0.002 0.542 0.002 0.536 0.01 1.081 0.084 1.608 0.021C71.389 62.836 71.656 62.08 71.16 61.465zM58.885 36.461c-0.074 0.593-0.773 1.188-1.37 1.109-0.548-0.07-0.899 0.154-1.194 0.534-0.551 0.711-1.274 1.083-2.155 1.187-0.362 0.043-0.722 0.113-1.084 0.15-0.712 0.076-1.306 0.379-1.659 1-0.333 0.582-0.85 0.747-1.434 0.742-0.564-0.006-1.134-0.074-1.691-0.176-0.508-0.092-1.021-0.742-1.055-1.328-0.037-0.664-0.273-1.211-0.776-1.65-0.671-0.586-0.909-1.326-0.736-2.271 0.699 0.046 1.62 0.107 2.367 0.123-0.366 0.281-0.664 0.738-0.8 1.084-0.064 0.16-0.167 0.398-0.146 0.56 0.022 0.163 0.12 0.329 0.273 0.376 0.111 0.035 0.279 0.025 0.391-0.058 0.383-0.288 0.537-0.675 0.912-0.981 0.312 0.508 0.927 0.625 1.364 0.268 0.231-0.19 0.402-0.146 0.577 0.029 0.472 0.402 0.823 0.768 1.272 1.263 0.386 0.501 0.806 0.137 0.831-0.161 0.051-0.591-0.151-1.084-0.512-1.529-0.106-0.132-0.226-0.254-0.423-0.475 0.664 0.087 1.204 0.164 1.744 0.227 0.334 0.038 0.669 0.061 1.004 0.072 0.604 0.021 0.939-0.214 1.15-0.781 0.324-0.879 0.377-0.901 1.398-0.568-0.086 0.327-0.18 0.658-0.258 0.992-0.072 0.305-0.152 0.623 0.271 0.748 0.392 0.117 0.651-0.035 0.793-0.406 0.048-0.123 0.102-0.287 0.163-0.38 0.136-0.212 0.354-0.268 0.514-0.194C58.752 36.028 58.917 36.227 58.885 36.461zM49.202 36.415c0.065-0.246 0.123-0.365 0.254-0.67 0.224-0.616 0.314-1.054 0.453-1.584 0.064-0.256 0.089-0.494 0.458-0.428 0.361 0.065 0.288 0.322 0.258 0.559-0.099 0.783-0.441 1.396-0.753 2.062C49.688 36.749 49.111 36.817 49.202 36.415zM51.452 28.312c1.462-0.57 2.341-0.354 3.196-0.045 0.107 0.039 0.742 0.308 1.076 0.687 0.693 0.796 1.148 1.103 1.883 1.474 0.627 0.316 0.906 0.88 0.926 1.616 0.038 1.453-0.375 2.795-0.876 4.124-0.054 0.147-0.128 0.321-0.218 0.425-0.074 0.086-0.283 0.07-0.24-0.107 0.176-0.533 0.347-1.043 0.521-1.576 0.29-0.894 0.344-1.864 0.171-2.784-0.16-0.48-0.286-0.696-0.742-1.142-0.662-0.514-0.99-0.556-1.016-0.593-0.302-0.435-0.879-0.582-1.291-0.708-0.581-0.149-1.092-0.185-1.654-0.208-0.652-0.026-1.309 0.046-1.963 0.049-0.464 0.002-0.929-0.04-1.517-0.068C50.274 28.899 50.85 28.587 51.452 28.312zM47.303 30.681c0.541-0.456 1.106-0.581 1.87-0.487 1.215 0.15 2.466 0.014 3.702 0.008 0.696-0.003 1.406-0.075 2.088 0.035 1.35 0.217 2.422 1.536 2.477 2.916 0.01 0.232-0.003 0.468-0.021 0.698-0.009 0.128-0.049 0.254-0.078 0.396-0.149-0.051-0.271-0.096-0.394-0.138-0.248-0.083-0.573-0.101-0.721-0.271-0.121-0.14 0.002-0.499-0.052-0.697-0.029-0.259-0.204-0.456-0.372-0.516-1.433-0.505-2.924-0.636-4.431-0.535-0.202 0.009-0.416 0.146-0.47 0.525-0.012 0.086-0.031 0.192-0.047 0.323-0.287-0.033-0.555-0.065-0.822-0.097 0.005-0.885-0.085-0.986-0.991-1.086-0.9-0.121-1.652-0.197-2.532-0.268C46.807 31.183 47.035 30.908 47.303 30.681zM43.169 19.422c0.456-0.128 0.754-0.383 0.998-0.776 0.313-0.505 0.389-0.501 0.875-0.139 0.083-0.13 0.162-0.294 0.252-0.415 0.313-0.417 0.665-0.337 0.689-0.33 0.259 0.076 0.436 0.252 0.533 0.738 0.148 0.828-0.208 1.558-0.673 2.189-0.21 0.283-0.358 0.542-0.323 0.909 0.063 0.638 0.065 1.283 0.142 1.918 0.06 0.499-0.171 0.828-0.549 1.049-0.595 0.349-1.252 0.439-1.976 0.319 0.007-1.002 0.522-1.951 0.202-3.043-0.144-0.562-0.464-0.978-0.57-1.21C42.522 20.086 42.519 19.604 43.169 19.422zM54.59 54.139c-0.234 1.689-0.51 3.375-0.744 5.064-0.188 1.354-0.348 2.711-0.5 4.07-0.23 2.039-0.463 4.078-0.656 6.121-0.079 0.838-0.084 1.688-0.076 2.529 0.01 1.088 0.059 2.176 0.104 3.262 0.037 0.902 0.076 1.801 0.147 2.699 0.079 1.018 0.219 2.029 0.291 3.047 0.124 1.768 0.443 3.5 0.852 5.219 0.092 0.381 0.158 0.775 0.174 1.166 0.006 0.164-0.104 0.416-0.236 0.492-0.641 0.365-1.305 0.684-2.047 1.062-0.37-1.109-0.712-2.066-1.013-3.037-0.805-2.604-1.619-5.205-2.377-7.822-0.459-1.582-0.802-3.197-1.23-4.789-0.594-2.207-1.208-4.408-1.842-6.605-0.138-0.48-0.349-0.928-0.549-1.395-0.122-0.287-0.388-0.41-0.685-0.363-0.35 0.066-0.471 0.205-0.597 0.533C43.458 66 43.381 66.334 43.33 67.07c-0.086 1.207-0.108 2.42-0.069 3.629 0.057 1.791 0.203 3.58 0.297 5.371 0.035 0.666 0.022 1.332 0.047 1.998 0.013 0.334 0.068 0.666 0.089 1 0.121 1.893 0.232 3.785 0.356 5.678 0.033 0.508 0.088 1.014 0.149 1.52 0.036 0.297-0.03 0.49-0.337 0.613-0.737 0.295-1.489 0.5-2.338 0.498-0.07-0.373-0.135-0.742-0.211-1.109-0.243-1.182-0.485-2.34-0.678-3.529-0.169-1.043-0.282-2.123-0.388-3.176-0.039-0.393-0.046-0.787-0.092-1.178-0.087-0.75-0.2-1.498-0.288-2.246-0.131-1.111-0.235-2.225-0.379-3.332-0.138-1.07-0.284-2.143-0.476-3.203-0.411-2.268-0.9-4.52-1.27-6.793-0.354-2.174-0.645-4.359-0.87-6.551-0.147-1.43-0.118-2.875-0.194-4.312-0.027-0.521 0.229-0.82 0.67-0.943 0.743-0.207 1.374-0.368 2.13-0.517 0.341-0.066 0.86-0.084 1.209-0.107 0.191-0.006 0.433 0.006 0.437 0.006 0.013 0.002 0.023 0.223 0.037 0.336 0.035 0.3 0.071 0.39 0.353 0.392 1.285 0.014 2.569 0.047 3.854 0.064 0.127 0.002 0.336 0.006 0.386-0.029 0.006-0.006 0.143-0.068 0.217-0.388 0.004-0.019 0.464 0.068 0.742 0.115 1.815 0.32 3.804 0.853 5.588 1.675 0.712 0.328 1.406 0.699 2.086 1.09C54.546 53.752 54.615 53.842 54.59 54.139zM42.332 49.492c0.917 0.009 1.833 0.029 2.75 0.074 0.409 0.021 0.283 0.368 0.286 0.608 0.004 0.25-0.129 0.359-0.391 0.338-0.435-0.035-0.873-0.047-1.31-0.068-0.423-0.002-0.846-0.021-1.267 0.006-0.28 0.018-0.425-0.07-0.418-0.349C41.987 49.839 41.899 49.487 42.332 49.492zM62.311 58.215c-0.656-0.785-1.477-1.768-2.193-2.643-1.25-1.523-2.346-3.152-3.324-4.863-0.559-0.976-0.713-2.047-0.84-3.135-0.076-0.646-0.163-1.219-0.288-1.88-0.024-0.138-0.274-0.263-0.317 0.245-0.059 0.682-0.078 1.366-0.123 2.05-0.097 1.457-0.2 2.913-0.311 4.518-1.418-0.92-2.831-1.473-4.314-1.843-1.462-0.366-2.93-0.718-4.433-1.086 0.078-0.459-0.287-0.572-0.746-0.595-1.12-0.056-2.244-0.101-3.365-0.146-0.167-0.007-0.559-0.011-0.667 0.069-0.172 0.137-0.16 0.325-0.178 0.342-0.012 0.014-0.718 0.034-1.198 0.097-1.085 0.138-1.237 0.183-2.229 0.371-0.14 0.023-0.909 0.17-1.129 0.211 0.165-1.15 0.286-2.078 1.093-3.097 1.27-1.442 2.583-2.845 3.875-4.265 0.107-0.119 0.233-0.236 0.29-0.379 0.351-0.896 1.04-1.496 1.773-2.059 0.296-0.227 0.587-0.459 0.881-0.689 0.152-0.12 0.083-0.148-0.004-0.17-0.244-0.059-0.449-0.069-0.68-0.076-0.346 0.047-0.476 0.109-0.703 0.166-0.749-4.561-0.967-9.103-0.172-13.638 0.973 0.176 1.779 0.078 2.709-0.524 0.066 0.426 0.136 0.979 0.243 1.524 0.206 1.059 0.44 2.112 0.639 3.172 0.028 0.148 0.021 0.262-0.055 0.409-0.073 0.138-0.279 0.326-0.379 0.443-0.241 0.284-0.651 0.726-0.657 0.715-0.005-0.012-0.377 0.011-0.622 0.039-0.2 0.021-0.344 0.263-0.394 0.539-0.096 0.881-0.162 1.769-0.172 2.654-0.003 0.242 0.145 0.569 0.332 0.74 0.081 0.073 0.24 0.148 0.348 0.222 0.02 0.013-0.017 0.261-0.021 0.456-0.02 0.964 0.289 1.783 1.013 2.47 0.274 0.26 0.5 0.677 0.553 1.05 0.271 1.959 1.97 2.549 3.458 2.29 0.763-0.133 1.48-0.571 2.194-0.921 0.406-0.198 0.79-0.275 1.218-0.141 1.805 0.568 3.353 1.529 4.417 3.117 1.029 1.534 2.036 3.091 2.937 4.702 1.105 1.979 2.088 4.024 3.132 6.036 0.327 0.631 0.722 1.326 1.035 1.902C63.717 56.822 62.957 57.393 62.311 58.215zM70.631 62.18c-0.072 0.131-0.342 0.078-0.511 0.07-0.565-0.029-1.13-0.109-1.693-0.082-0.234 0.012-0.514 0.113-0.707 0.268-0.383 0.326-0.435 0.697 0.011 0.953 0.205 0.098 0.536 0.41 0.422 0.549-0.114 0.172-0.428 0.16-0.695 0.092-0.525-0.139-1.008-0.443-1.326-0.961-0.475-0.662-0.84-1.402-1.336-2.047-0.521-0.678-1.14-1.281-1.713-1.918-0.068-0.074-0.123-0.162-0.196-0.262 0.604-0.766 1.404-1.193 2.37-1.445 0.462 0.842 0.941 1.672 1.376 2.525 0.485 0.949 1.287 1.371 2.297 1.518 0.469 0.066 0.938 0.158 1.39 0.301C70.455 61.783 70.695 61.922 70.631 62.18z" fill="#ca3433" data-fill-palette-color="accent"></path></svg></g></svg></g><g></g></svg></g></svg></g></svg></g><g id="text-0"><path d="M31.049 110.885l-23.869-14.232 1.862-4.325c0.123-0.59 0.268-1.228 0.433-1.913 0.161-0.694 0.361-1.37 0.599-2.028v0c0.377-1.043 0.835-1.985 1.372-2.826 0.532-0.842 1.15-1.523 1.855-2.04 0.707-0.524 1.5-0.848 2.379-0.972 0.882-0.13 1.868 0.003 2.96 0.397v0c1.55 0.56 2.694 1.449 3.434 2.668 0.741 1.213 1.169 2.73 1.283 4.551v0c0.989-1.133 1.976-1.831 2.962-2.096 0.983-0.259 2.073-0.172 3.268 0.26v0c1.373 0.496 2.481 1.248 3.323 2.257 0.843 1.008 1.434 2.177 1.775 3.507 0.334 1.328 0.433 2.764 0.296 4.307-0.143 1.542-0.5 3.103-1.072 4.683v0c-0.238 0.659-0.476 1.318-0.714 1.977-0.24 0.665-0.469 1.279-0.686 1.842-0.219 0.569-0.401 1.052-0.544 1.448-0.141 0.39-0.235 0.65-0.281 0.778v0zM23.681 96.8l-0.661 1.831 6.434 3.784 0.466-1.291c0.203-0.561 0.323-1.152 0.361-1.773 0.036-0.615-0.037-1.206-0.217-1.775-0.187-0.571-0.479-1.08-0.876-1.527-0.397-0.447-0.941-0.795-1.63-1.045v0c-0.988-0.357-1.794-0.39-2.417-0.097-0.623 0.292-1.11 0.923-1.46 1.893zM13.613 91.476v0c-0.165 0.458-0.266 0.897-0.301 1.319v0l5.715 3.4 0.344-0.952c0.496-1.373 0.526-2.534 0.09-3.485-0.43-0.949-1.127-1.597-2.091-1.946v0c-1.019-0.368-1.819-0.406-2.401-0.112-0.582 0.293-1.034 0.885-1.356 1.776z" fill="#ca3433" data-fill-palette-color="accent"></path><path d="M48.181 73.913l-17.67-21.26 4.15-5.091 14.484 17.407 5.613-6.886 3.802 3.099z" fill="#ca3433" data-fill-palette-color="accent"></path><path d="M70.701 17.73v0c2.839-1.737 5.311-2.307 7.419-1.71 2.107 0.597 3.929 2.151 5.466 4.663v0c1.256 2.053 2.217 4.207 2.882 6.462 0.671 2.252 0.937 4.458 0.799 6.618-0.138 2.161-0.729 4.196-1.774 6.105-1.05 1.913-2.671 3.54-4.862 4.881v0c-2.833 1.734-5.312 2.281-7.438 1.642-2.116-0.637-3.936-2.2-5.46-4.69v0c-1.256-2.053-2.217-4.207-2.881-6.462-0.665-2.255-0.933-4.452-0.806-6.591 0.137-2.137 0.734-4.157 1.791-6.059 1.051-1.898 2.673-3.518 4.864-4.859zM72.257 22.676v0c-0.99 0.606-1.623 1.499-1.898 2.679-0.277 1.188-0.306 2.477-0.088 3.864 0.218 1.388 0.612 2.808 1.182 4.262 0.574 1.459 1.212 2.764 1.917 3.915v0c0.366 0.598 0.76 1.124 1.184 1.58 0.423 0.456 0.877 0.806 1.361 1.05 0.478 0.247 0.986 0.355 1.521 0.323 0.539-0.026 1.111-0.223 1.714-0.592v0c0.99-0.606 1.618-1.507 1.882-2.703 0.268-1.191 0.289-2.492 0.063-3.906-0.232-1.41-0.637-2.85-1.218-4.32-0.586-1.467-1.231-2.776-1.935-3.927v0c-0.352-0.575-0.737-1.086-1.153-1.53-0.408-0.443-0.85-0.78-1.328-1.013-0.477-0.233-0.98-0.328-1.509-0.286-0.533 0.037-1.098 0.238-1.695 0.604z" fill="#ca3433" data-fill-palette-color="accent"></path><path d="M125.156 28.891l0.31-4.237c-0.488 1.227-1.181 2.234-2.08 3.022-0.899 0.787-1.99 1.283-3.272 1.486v0c-2.537 0.404-4.552-0.083-6.046-1.461-1.494-1.378-2.472-3.521-2.935-6.43v0c-0.379-2.377-0.445-4.734-0.201-7.072 0.245-2.338 0.851-4.474 1.818-6.409 0.961-1.927 2.318-3.572 4.071-4.934 1.754-1.363 3.953-2.255 6.599-2.677v0c1.256-0.2 2.325-0.232 3.207-0.097 0.882 0.135 1.634 0.38 2.255 0.735 0.614 0.349 1.117 0.807 1.51 1.375 0.393 0.568 0.722 1.173 0.989 1.813v0l-4.714 3.135c-0.156-0.277-0.33-0.545-0.522-0.803-0.192-0.258-0.424-0.474-0.694-0.648-0.277-0.173-0.619-0.296-1.024-0.369-0.412-0.072-0.91-0.062-1.493 0.031v0c-1.256 0.2-2.258 0.796-3.006 1.789-0.741 0.998-1.297 2.19-1.667 3.576-0.364 1.385-0.56 2.858-0.587 4.419-0.026 1.568 0.065 3.005 0.272 4.312v0c0.221 1.39 0.62 2.512 1.197 3.367 0.575 0.848 1.356 1.193 2.342 1.036v0c0.423-0.067 0.843-0.256 1.26-0.566 0.416-0.316 0.799-0.718 1.148-1.207 0.342-0.495 0.626-1.062 0.852-1.703 0.227-0.634 0.353-1.311 0.376-2.03v0l0.171-4.866 6.324-1.007-0.486 15.262c-0.033 1.155-0.258 2.275-0.677 3.359-0.413 1.077-0.987 2.049-1.723 2.916-0.741 0.873-1.633 1.603-2.677 2.19-1.042 0.593-2.216 0.993-3.523 1.201v0c-0.801 0.128-1.639 0.185-2.514 0.174-0.876-0.012-1.726-0.073-2.552-0.185-0.827-0.118-1.618-0.261-2.375-0.43-0.749-0.163-1.397-0.339-1.946-0.527v0l1.456-5.277c1.859 0.492 3.331 0.809 4.418 0.952 1.093 0.141 2.079 0.142 2.956 0.002v0c0.935-0.149 1.684-0.521 2.246-1.117 0.562-0.595 0.874-1.295 0.937-2.1z" fill="#ca3433" data-fill-palette-color="accent"></path><path d="M178.983 32.144l25.379-16.427 4.951 2.607-8.053 26.421-5.949-3.133 2.12-6.219-7.025-3.7-6.265 4.399zM194.878 28.505l4.158 2.19c0.451-1.317 0.911-2.592 1.378-3.827 0.47-1.241 0.858-2.298 1.164-3.17v0c-0.872 0.611-1.897 1.34-3.076 2.185-1.179 0.846-2.387 1.72-3.624 2.622z" fill="#ca3433" data-fill-palette-color="accent"></path><path d="M216.664 56.528l23.919-14.149 2.77 3.552c0.444 0.335 0.91 0.728 1.397 1.18 0.492 0.448 0.99 0.956 1.494 1.524v0c0.787 0.888 1.434 1.785 1.94 2.688 0.511 0.899 0.831 1.799 0.961 2.698 0.13 0.899 0.019 1.782-0.333 2.648-0.352 0.875-0.981 1.715-1.889 2.519v0c-1.355 1.2-2.759 2.003-4.212 2.407-1.449 0.4-2.868 0.5-4.258 0.301-1.38-0.198-2.688-0.656-3.922-1.374-1.23-0.713-2.312-1.596-3.245-2.65v0c-0.25-0.282-0.49-0.553-0.723-0.816-0.232-0.262-0.454-0.556-0.663-0.881v0l-8.88 5.268zM242.05 50.505v0c-0.164-0.184-0.316-0.357-0.458-0.517-0.142-0.16-0.308-0.304-0.498-0.43v0l-7.028 4.174 0.51 0.575c0.985 1.112 2.133 1.694 3.444 1.745 1.311 0.052 2.542-0.432 3.693-1.452v0c0.811-0.719 1.212-1.42 1.203-2.106-0.005-0.68-0.293-1.344-0.866-1.989z" fill="#ca3433" data-fill-palette-color="accent"></path><path d="M239.921 87.2l27.288-5.262 1.411 4.278c0.305 0.465 0.611 0.992 0.918 1.582 0.313 0.588 0.61 1.234 0.893 1.938v0c0.442 1.102 0.749 2.163 0.92 3.185 0.178 1.019 0.176 1.974-0.004 2.864-0.181 0.89-0.583 1.684-1.205 2.381-0.626 0.705-1.502 1.284-2.628 1.735v0c-1.68 0.674-3.272 0.956-4.776 0.846-1.499-0.112-2.869-0.495-4.11-1.15-1.233-0.652-2.309-1.524-3.23-2.616-0.918-1.086-1.639-2.282-2.163-3.588v0c-0.14-0.349-0.275-0.686-0.405-1.012-0.13-0.325-0.24-0.676-0.328-1.053v0l-10.136 1.968zM265.852 90.083v0c-0.092-0.229-0.177-0.443-0.257-0.641-0.08-0.199-0.188-0.39-0.324-0.572v0l-8.023 1.561 0.286 0.714c0.553 1.379 1.438 2.313 2.655 2.803 1.217 0.49 2.539 0.449 3.966-0.123v0c1.006-0.403 1.619-0.929 1.842-1.577 0.225-0.642 0.176-1.364-0.145-2.165z" fill="#ca3433" data-fill-palette-color="accent"></path><path d="M11.823 175.247l27.819-4.407 1.357 4.57c0.279 0.541 0.58 1.132 0.902 1.774 0.323 0.642 0.606 1.299 0.849 1.969v0c0.383 1.055 0.638 2.084 0.767 3.086 0.129 1.002 0.088 1.935-0.123 2.798-0.211 0.863-0.616 1.631-1.214 2.304-0.606 0.668-1.461 1.203-2.566 1.603v0c-1.573 0.571-3.041 0.623-4.403 0.158-1.365-0.471-2.684-1.38-3.96-2.725v0c-0.032 1.53-0.346 2.717-0.944 3.561-0.598 0.845-1.5 1.486-2.707 1.924v0c-1.39 0.504-2.743 0.636-4.059 0.396-1.307-0.237-2.524-0.765-3.65-1.585-1.129-0.812-2.139-1.864-3.028-3.156-0.892-1.298-1.627-2.746-2.207-4.344v0c-0.241-0.665-0.483-1.333-0.726-2.003-0.243-0.671-0.464-1.298-0.662-1.882-0.198-0.584-0.37-1.077-0.516-1.48-0.144-0.396-0.239-0.659-0.285-0.786v0zM26.705 181.432l-0.674-1.857-7.475 1.221 0.477 1.317c0.206 0.567 0.497 1.103 0.873 1.609 0.37 0.507 0.811 0.924 1.323 1.249 0.511 0.325 1.066 0.531 1.663 0.618 0.603 0.085 1.253 0.001 1.948-0.251v0c1-0.363 1.648-0.86 1.943-1.491 0.301-0.634 0.275-1.439-0.078-2.415zM37.988 179.038v0c-0.168-0.463-0.374-0.869-0.616-1.216v0l-6.655 1.058 0.351 0.97c0.504 1.39 1.232 2.313 2.184 2.768 0.952 0.455 1.916 0.506 2.892 0.152v0c1.031-0.374 1.678-0.864 1.94-1.469 0.263-0.606 0.231-1.36-0.096-2.263z" fill="#ca3433" data-fill-palette-color="accent"></path><path d="M32.326 218.164l24.698-13.216 4.209 5.156-20.224 10.832 5.692 6.973-3.852 3.145z" fill="#ca3433" data-fill-palette-color="accent"></path><path d="M89.125 231.476v0c2.872 1.757 4.528 3.724 4.968 5.902 0.431 2.18-0.132 4.543-1.69 7.088v0c-1.273 2.081-2.773 3.943-4.5 5.586-1.724 1.637-3.592 2.894-5.603 3.77-2.013 0.867-4.122 1.269-6.327 1.206-2.21-0.067-4.425-0.779-6.644-2.137v0c-2.878-1.76-4.518-3.741-4.921-5.941-0.399-2.206 0.173-4.571 1.717-7.095v0c1.273-2.081 2.773-3.943 4.5-5.585 1.724-1.637 3.583-2.892 5.576-3.764 1.99-0.866 4.087-1.261 6.29-1.183 2.203 0.078 4.415 0.795 6.634 2.153zM85.377 235.16v0c-1.007-0.616-2.107-0.776-3.3-0.479-1.193 0.297-2.366 0.865-3.518 1.704-1.154 0.83-2.255 1.841-3.304 3.033-1.048 1.192-1.93 2.371-2.643 3.538v0c-0.372 0.609-0.667 1.208-0.884 1.798-0.216 0.59-0.325 1.159-0.325 1.707 0.009 0.545 0.148 1.057 0.42 1.534 0.269 0.468 0.707 0.889 1.316 1.261v0c1.007 0.616 2.112 0.767 3.315 0.454 1.2-0.308 2.382-0.892 3.548-1.754 1.171-0.858 2.284-1.888 3.339-3.09 1.052-1.197 1.936-2.382 2.654-3.556v0c0.355-0.581 0.638-1.161 0.848-1.74 0.21-0.579 0.311-1.137 0.305-1.673-0.01-0.531-0.155-1.027-0.437-1.487-0.281-0.461-0.726-0.877-1.334-1.25z" fill="#ca3433" data-fill-palette-color="accent"></path><path d="M121.711 272.484l1.629-3.988c-0.853 1.027-1.836 1.777-2.949 2.251-1.12 0.479-2.331 0.615-3.632 0.408v0c-2.569-0.408-4.355-1.51-5.357-3.304-1.008-1.802-1.277-4.177-0.809-7.124v0c0.383-2.409 1.062-4.702 2.039-6.879 0.969-2.171 2.221-4.038 3.756-5.6 1.535-1.556 3.361-2.714 5.479-3.475 2.118-0.761 4.519-0.928 7.203-0.501v0c1.269 0.202 2.308 0.505 3.117 0.909 0.809 0.404 1.457 0.875 1.943 1.412 0.48 0.536 0.821 1.139 1.023 1.808 0.196 0.668 0.32 1.355 0.373 2.059v0l-5.525 1.536c-0.061-0.318-0.143-0.63-0.246-0.935-0.102-0.312-0.257-0.593-0.467-0.843-0.209-0.257-0.498-0.483-0.867-0.68-0.376-0.198-0.862-0.344-1.458-0.438v0c-1.269-0.202-2.417 0.059-3.445 0.783-1.034 0.722-1.947 1.694-2.739 2.915-0.785 1.222-1.438 2.58-1.957 4.073-0.514 1.501-0.877 2.915-1.088 4.241v0c-0.224 1.409-0.192 2.613 0.096 3.612 0.281 1.004 0.921 1.585 1.92 1.743v0c0.436 0.069 0.903 0.019 1.404-0.151 0.5-0.17 0.993-0.44 1.478-0.809 0.491-0.362 0.944-0.816 1.359-1.361 0.421-0.544 0.755-1.158 1.002-1.841v0l1.693-4.638 6.41 1.019-5.258 14.554c-0.399 1.106-0.969 2.112-1.712 3.019-0.742 0.907-1.604 1.663-2.587 2.269-0.984 0.612-2.07 1.037-3.257 1.276-1.195 0.244-2.455 0.26-3.781 0.049v0c-0.807-0.128-1.631-0.338-2.472-0.629-0.848-0.286-1.65-0.614-2.406-0.983-0.762-0.371-1.48-0.754-2.152-1.15-0.672-0.402-1.243-0.779-1.712-1.129v0l3.07-4.626c1.631 1.061 2.951 1.832 3.958 2.314 1.008 0.475 1.958 0.784 2.848 0.925v0c0.948 0.151 1.786 0.027 2.512-0.369 0.733-0.396 1.254-0.97 1.564-1.722z" fill="#ca3433" data-fill-palette-color="accent"></path><path d="M187.473 263.872l0.854-30.62 5.023-2.638 17.435 21.893-6.039 3.172-3.964-5.348-7.133 3.746 0.086 7.759zM193.56 248.508l4.221-2.217c-0.844-1.132-1.65-2.248-2.418-3.347-0.762-1.102-1.419-2.032-1.971-2.79v0c0.007 1.073 0.027 2.346 0.059 3.816 0.027 1.474 0.063 2.986 0.109 4.538z" fill="#ca3433" data-fill-palette-color="accent"></path><path d="M231.746 236.409l-17.126-22.361 3.236-3.217c0.284-0.485 0.623-1 1.019-1.543 0.395-0.552 0.846-1.114 1.354-1.686v0c0.801-0.902 1.625-1.663 2.471-2.282 0.85-0.625 1.718-1.055 2.605-1.291 0.887-0.236 1.79-0.232 2.71 0.012 0.915 0.249 1.834 0.783 2.755 1.602v0c1.372 1.219 2.348 2.533 2.928 3.942 0.575 1.413 0.847 2.831 0.816 4.253-0.036 1.417-0.338 2.789-0.908 4.113-0.57 1.325-1.328 2.521-2.277 3.588v0c-0.254 0.286-0.5 0.563-0.736 0.829-0.233 0.262-0.5 0.519-0.803 0.771v0l6.377 8.294zM222.616 211.597v0c-0.164 0.184-0.317 0.356-0.459 0.517-0.146 0.165-0.271 0.349-0.374 0.552v0l5.047 6.567 0.517-0.582c1-1.125 1.446-2.351 1.341-3.677-0.11-1.321-0.747-2.499-1.911-3.533v0c-0.82-0.728-1.571-1.049-2.256-0.963-0.684 0.086-1.319 0.459-1.905 1.119z" fill="#ca3433" data-fill-palette-color="accent"></path><path d="M258.737 199.9l-23.652-15.293 1.964-4.119c0.104-0.553 0.251-1.151 0.44-1.795 0.186-0.652 0.422-1.334 0.709-2.043v0c0.451-1.119 0.971-2.113 1.558-2.981 0.59-0.874 1.263-1.572 2.018-2.093 0.755-0.521 1.607-0.821 2.556-0.9 0.946-0.073 1.99 0.12 3.133 0.581v0c1.703 0.686 3.064 1.595 4.084 2.727 1.017 1.137 1.751 2.381 2.2 3.73 0.443 1.347 0.62 2.74 0.53 4.179-0.091 1.439-0.403 2.821-0.937 4.144v0c-0.143 0.355-0.281 0.698-0.414 1.029-0.131 0.325-0.296 0.657-0.496 0.996v0l8.796 5.665zM241.789 179.608v0c-0.092 0.229-0.178 0.442-0.258 0.641-0.082 0.205-0.138 0.42-0.166 0.646v0l6.963 4.486 0.291-0.722c0.563-1.396 0.571-2.701 0.025-3.914-0.549-1.207-1.545-2.102-2.989-2.684v0c-1.017-0.41-1.833-0.459-2.448-0.148-0.615 0.312-1.088 0.877-1.418 1.695z" fill="#ca3433" data-fill-palette-color="accent"></path><path d="M6.841 139.581c0-5.826 4.723-10.549 10.549-10.549 5.826 0 10.549 4.723 10.549 10.549 0 5.826-4.723 10.549-10.549 10.549-5.826 0-10.549-4.723-10.549-10.549z" fill="#ca3433" data-fill-palette-color="accent"></path><path d="M252.061 139.581c0-5.826 4.723-10.549 10.549-10.549 5.826 0 10.549 4.723 10.549 10.549 0 5.826-4.723 10.549-10.549 10.549-5.826 0-10.549-4.723-10.549-10.549z" fill="#ca3433" data-fill-palette-color="accent"></path></g><g id="text-1"></g></svg></g><defs></defs></svg><rect width="280" height="280" fill="none" stroke="none" visibility="hidden"></rect></g></svg></g></svg>